<svg width="108" height="68" viewBox="0 0 108 68" fill="none" xmlns="http://www.w3.org/2000/svg">
<path fill-rule="evenodd" clip-rule="evenodd" d="M47.7481 19.2266C47.3486 21.7748 48.8798 23.7031 51.1434 23.6342C52.3418 23.6342 53.407 23.0833 54.4723 22.6701C54.8717 23.9786 55.4043 24.805 56.403 25.4248C57.335 26.0446 58.2671 26.3201 59.4655 26.389C62.7277 26.5956 65.191 24.805 67.1883 23.5654C67.3881 23.4276 67.5212 23.2899 67.5878 23.0833C67.6544 22.8767 68.3201 22.5323 68.4533 22.3946C68.5864 22.3257 68.5864 22.1191 68.653 21.9814C68.7196 21.8436 69.5185 21.2238 70.1843 20.9483C70.3174 20.8795 70.4506 20.053 70.0511 19.8464C69.6517 19.6398 69.0525 20.1908 68.5864 20.4663C68.0538 20.8106 67.5212 21.0172 67.1218 21.2238C66.1897 21.7059 65.2576 22.3257 64.1258 22.6701C61.3296 23.4965 58.8663 22.3946 58.134 20.2596C58.9329 19.5021 59.6652 18.7445 60.3976 17.987C62.1285 16.2652 65.191 11.651 64.5919 10.7557C64.1924 10.2736 63.3935 10.618 63.0606 10.7557C62.9275 10.8246 62.6611 10.7557 62.528 10.8246C61.7957 11.1001 60.9967 11.7888 60.2644 12.202C59.4655 12.6841 58.7331 13.0973 58.0674 13.7171C56.2698 15.3699 54.9383 17.7804 54.3391 20.1908C52.6081 20.604 51.4763 18.8134 51.7426 17.0228C54.0728 15.0945 56.0035 12.8218 58.0674 10.4802C59.3323 9.034 60.2644 7.45001 61.1965 5.86603C61.3962 5.52168 61.3962 5.31508 61.5293 4.90186C61.6625 4.48865 61.9954 4.00656 62.1285 3.38674C62.4614 2.42258 62.8609 0.769721 62.1951 0.0810314C61.7957 -0.263314 59.6652 0.563114 58.7331 1.18294C57.8011 1.80276 56.9356 2.21597 56.1367 2.69805C55.6706 3.0424 55.2046 3.66222 54.7386 4.1443C54.2725 4.62639 53.9396 5.31508 53.5402 5.86603C51.9424 8.27644 50.8106 10.618 49.5456 13.3039C49.1462 14.1992 48.6801 15.4388 48.3472 16.4719C48.2141 16.8851 48.2141 16.9539 48.0144 17.1605C47.7481 17.5738 46.5497 18.3313 46.0836 18.5379C45.9505 18.6068 44.2195 19.2266 44.619 20.3285C45.0184 20.7417 46.7494 19.571 47.7481 19.2266ZM61.1964 13.0972C61.263 13.0972 61.3296 13.0972 61.3296 13.1661C61.5293 13.6482 61.1298 14.268 60.8635 14.6812C60.1312 15.7831 59.1991 17.2982 58.2671 17.7803C58.6 15.7831 59.8649 14.268 61.1964 13.0972ZM58.2671 3.18008C58.3337 3.04234 58.4668 2.97347 58.7997 3.04234C59.066 3.11121 58.2671 5.45275 57.801 6.48579C56.6027 8.96507 54.672 10.9623 53.0741 12.8906C54.3391 9.65376 56.2032 5.93484 58.2671 3.18008Z" fill="white"/>
<path fill-rule="evenodd" clip-rule="evenodd" d="M106.402 36.7883C105.47 36.6505 104.005 36.1684 103.14 36.0996V36.0996C102.74 36.0307 100.543 35.6864 99.2785 35.9618C98.9456 36.0307 98.6128 36.0307 98.2799 35.9618C100.011 35.4798 101.942 35.2731 103.939 35.8241C103.872 35.8241 104.671 35.893 105.404 35.9618C105.337 35.9618 105.47 35.9618 105.47 35.9618C106.336 36.1684 106.868 36.0307 107.667 35.893C107.068 35.4109 105.736 35.6864 105.47 34.8599C105.803 34.5156 106.602 34.8599 107.068 34.8599C106.868 34.5845 106.469 34.5845 106.269 34.3778C106.469 34.309 106.668 34.5156 106.802 34.3778C106.535 34.2401 106.735 34.1712 106.935 34.1024C106.402 33.9646 105.603 33.9646 105.67 33.3448C106.202 33.4137 107.201 33.5514 107.268 33.5514C107.334 33.4825 106.935 33.3448 106.935 33.2071C106.202 33.0693 105.204 32.6561 104.471 32.3118C104.538 32.1052 104.338 31.9674 104.072 31.8986C105.204 32.0363 106.202 32.3118 107.268 32.3806C107.068 32.3118 107.334 32.2429 107.334 32.2429C107.268 32.2429 107.135 32.174 107.068 32.174C107.135 32.174 107.135 32.174 107.201 32.174C107.201 32.174 107.068 32.174 106.935 32.1052C106.868 32.1052 106.802 32.0363 106.735 32.0363C106.269 31.8986 105.47 31.6231 105.004 31.2787C105.87 31.3476 106.668 31.4165 107.467 31.4853C105.736 30.7278 102.208 30.7967 100.344 31.5542C99.1454 32.1052 97.0149 32.725 95.6834 33.4825C95.9497 32.725 96.4157 31.692 96.2826 30.8655C96.1494 31.0721 96.1494 31.4853 95.9497 31.5542C95.8831 31.4853 96.0829 31.141 95.8166 31.3476C95.9497 30.7278 96.4157 30.108 96.3492 29.557C96.0829 29.4193 96.0829 29.1438 95.6834 29.0749C95.6168 29.0749 95.6168 29.1438 95.4837 29.2127C95.5503 29.0749 95.75 29.0061 95.6168 28.8683C95.1508 28.7995 94.8845 28.5929 94.3519 28.7306C94.4185 29.0061 94.5516 29.2127 94.3519 29.4193C93.553 29.4193 93.4198 28.6617 93.0869 28.3174C92.6875 28.2485 92.6875 28.5929 92.4212 28.6617C92.3546 28.7306 92.4212 29.2815 92.288 29.6259C92.0217 30.3834 91.7554 31.3476 91.3559 32.1052C91.0896 32.5873 90.7568 33.3448 90.4905 33.758C89.8913 34.7222 89.6915 35.8241 89.0924 36.6505C89.1589 36.9949 88.826 37.0637 88.6929 37.3392C88.6263 37.477 88.6263 37.7524 88.4932 37.959C88.2269 38.51 87.7608 39.0609 87.4279 39.6808C86.3627 41.3336 85.2309 43.0553 84.2323 44.5705C83.5665 45.6035 82.9008 46.5677 82.235 47.5318C81.9687 47.945 81.6358 48.2205 81.5027 48.6337C81.4361 48.8403 81.5692 49.1158 81.5027 49.2535C81.4361 49.5979 81.1032 49.8734 81.1698 50.2866C81.3029 50.3555 81.5692 50.3555 81.7024 50.4932C81.5027 51.113 80.97 51.3885 81.1032 52.0772C81.4361 52.2149 81.7024 51.9394 81.9021 52.146C82.1684 51.8706 82.4347 51.4574 82.701 51.113C82.9673 50.8375 83.3002 50.2866 83.6997 50.4932C83.4999 51.113 82.8342 51.3885 83.1005 52.0772C83.4334 52.2838 83.6331 51.9394 83.8994 52.146C84.7649 51.1819 85.4307 50.08 86.4293 49.3224C87.4279 48.0139 88.36 46.6365 89.1589 45.1903C89.7581 44.5016 90.2907 43.8129 90.8233 43.1242C91.3559 42.4355 91.7554 41.6091 92.288 40.8515C92.5543 40.5072 93.0869 40.3006 93.4864 40.0251C94.6848 39.0609 95.6168 38.2345 97.0815 37.6147C98.6128 36.9949 100.211 36.5128 101.808 36.5128V36.5128C102.74 36.6505 103.806 36.5817 104.538 36.9949C104.538 36.9949 104.605 37.0637 104.671 37.0637C106.003 37.2015 106.868 37.4081 108 37.1326C107.8 36.8571 107.268 36.926 106.868 36.8571C106.402 36.8571 106.535 36.7883 106.402 36.7883ZM84.898 46.0856C84.7648 44.9148 85.5637 44.1573 86.0298 43.3997C86.0963 43.3997 86.9618 42.1601 87.4279 41.9535C86.5624 43.262 85.6303 44.6394 84.898 46.0856ZM90.4239 37.5459C89.8912 38.51 89.2921 39.4053 88.4931 40.2318C88.4266 39.6119 89.2255 38.9232 89.4918 38.2345C90.6236 37.2704 91.0896 35.6175 91.8885 34.309C91.9551 34.2401 91.822 33.8269 91.822 33.7581C92.1548 33.276 92.4211 32.5873 92.754 32.1052C92.8206 32.1052 92.8206 32.1052 92.8872 32.1741C92.8872 32.5184 92.8206 32.9316 92.754 33.0005C92.6874 33.0694 92.754 33.9647 92.5543 34.3779C92.0883 35.5487 91.0896 36.7194 90.4239 37.5459Z" fill="white"/>
<path fill-rule="evenodd" clip-rule="evenodd" d="M82.9002 34.5155C83.6325 32.6561 84.7643 31.2787 85.5632 29.5569C85.763 29.5569 85.8296 29.4192 85.9627 29.3503C85.4301 28.5928 84.8975 28.8683 84.032 29.0749C83.7657 29.4881 83.4328 29.8324 83.1665 30.2456C83.3662 29.8324 83.566 29.4192 83.7657 29.006C83.3662 28.9371 83.3662 29.2815 83.0999 29.2126C82.8336 29.6947 82.3676 30.039 82.1679 30.6589C81.3024 31.2098 80.8363 32.9315 80.0374 33.6202C80.4369 32.9315 80.9029 32.174 81.3024 31.4164C81.835 30.5211 82.5673 29.5569 82.7005 28.5239C82.4342 28.455 82.3676 28.1107 82.1013 27.973C81.0361 28.0418 80.9029 29.0749 80.2371 29.6258C79.5048 30.1768 79.1719 31.1409 78.5727 31.6919C78.5062 31.8296 78.5062 31.7608 78.5727 31.9674C77.8404 33.0004 77.3078 34.1712 76.3091 34.9287C75.9763 35.824 75.1773 36.2372 74.7113 36.9948C73.979 37.5458 73.6461 38.441 73.1135 39.1986C72.8472 39.6118 72.714 39.8873 72.5143 40.3005C72.3146 40.6449 71.9151 40.8515 71.9151 41.3335C71.1162 42.16 70.3839 43.1241 69.5184 44.0194C69.0523 44.4327 68.6529 44.9147 68.1868 45.2591C67.3879 45.81 66.5224 46.5676 65.7235 47.0497C64.392 47.7384 62.5944 47.5318 62.195 46.0855C62.0618 45.5346 62.195 44.9147 62.2615 44.3638C62.5278 41.9534 63.9259 40.0939 65.2575 38.7854C65.8567 37.8212 66.6556 37.0637 67.3213 36.0995C68.0537 34.9976 68.786 33.6891 69.5184 32.7249C69.4518 32.7249 69.4518 32.6561 69.4518 32.5872C70.051 31.8296 70.5836 31.0721 71.1162 30.2456C70.983 29.9702 71.1828 29.7636 71.2493 29.5569C70.7833 29.4881 70.6502 30.039 70.3839 30.3834C69.9844 30.8655 69.5184 31.2787 69.1189 31.5541C69.3852 31.1409 69.7181 30.7966 69.9178 30.4522C69.7847 30.4522 69.8512 30.1768 69.7181 30.1768C68.9192 30.7966 68.1203 31.7608 67.4545 32.3806C68.1203 31.3475 68.8526 30.3834 69.8512 29.6258C69.7181 29.5569 69.7847 29.5569 69.7847 29.4192C69.8512 29.2815 69.9844 29.2815 69.9844 29.0749C69.5849 29.0749 69.5184 29.4881 69.1855 29.6258C69.2521 29.4192 69.1189 29.4192 69.0523 29.2815C68.6529 29.2126 68.4531 29.6947 68.1203 29.4192C68.0537 29.4881 67.9871 29.6258 67.854 29.6947C67.7874 29.6258 67.7874 29.4881 67.6542 29.5569C67.4545 29.8324 66.3227 30.039 66.1895 30.1768C65.8567 30.3834 65.8567 30.8655 65.7901 31.0032C65.7901 31.0032 65.7235 31.2098 65.7235 31.4164C65.5238 31.4853 65.5904 31.623 65.3906 31.5541C64.7914 32.5183 63.5931 33.207 63.1936 34.3089C63.1936 34.3778 63.1936 34.3778 63.0605 34.5155C62.9939 34.5844 62.1284 36.0995 61.8621 36.7193C61.8621 36.7882 61.6624 37.1325 61.5292 37.3391C61.5292 37.2703 61.5292 37.2014 61.4626 37.2014C61.0632 37.8901 60.5971 38.5788 60.1977 39.1986C60.1311 39.2675 59.9979 39.4052 59.9979 39.4052C59.9979 39.4741 58.9993 40.7826 58.6664 41.4713C58.5998 41.609 58.0672 42.5043 57.6678 43.193C57.6678 43.2619 57.5346 43.6062 57.2017 44.1572C57.002 44.3638 56.2697 45.1902 56.0699 45.6723C56.0034 45.7412 55.6039 46.361 55.5373 46.5676C55.5373 46.6365 54.9381 47.7384 54.805 47.8761C54.4055 48.1516 54.2058 48.4959 53.9395 48.7714C53.8729 49.8044 52.4748 50.3554 53.4069 51.3196C54.4721 50.4931 55.271 49.3223 56.3362 48.4959C56.4028 48.4271 56.6026 48.2204 56.6691 48.1516C57.2017 49.1157 57.8009 50.011 58.6664 50.6309C59.2656 50.4931 59.5985 51.1129 59.9979 51.4573C60.1977 51.595 60.5306 51.6639 60.7969 51.8016C61.5292 52.2148 62.0618 52.6281 62.9273 52.8347C64.0591 53.0413 64.858 53.1101 65.7901 52.6969C68.1203 51.8016 70.5836 50.2176 72.0483 48.7714C72.3146 49.3224 72.7806 49.7356 73.3132 50.011C73.4464 50.0799 73.5795 50.1488 73.7127 50.2176C74.3784 50.6309 75.5102 50.9752 76.5754 50.8375C76.5754 50.6309 76.7086 50.4243 76.7752 50.4243C76.9083 50.3554 76.1094 49.8733 76.3091 49.9422C76.3091 49.9422 76.5754 50.0799 76.642 50.011C76.642 49.9422 76.3757 49.6667 76.4423 49.6667C76.7086 49.7356 77.1746 50.0799 77.2412 50.0799C77.5075 50.1488 77.7072 50.1488 77.8404 50.0799C78.5062 50.2865 78.9722 49.8044 79.4382 49.4601C78.9056 49.2535 78.5727 49.3224 77.9735 49.0469C77.7072 48.9091 76.9083 48.4959 76.9083 48.3582C75.71 48.0138 74.911 46.9119 75.1773 45.1902C76.5089 43.3996 78.0401 41.8156 79.3051 40.025C79.9708 39.4741 80.3703 38.6477 80.7698 37.8212C81.835 37.0637 81.9681 35.4108 82.9002 34.5155ZM58.267 46.2921C58.0007 45.5345 58.6664 44.4326 59.2656 43.9506C58.9327 44.5704 58.733 45.7411 59.0659 46.4298C59.3322 47.0497 59.9979 47.7383 60.5306 48.0827C59.7316 47.8761 58.5333 47.1185 58.267 46.2921ZM62.5944 38.7165C62.7275 38.441 62.8607 38.2344 62.9938 37.9589C63.2601 37.4768 63.3933 36.857 63.6596 36.3749C64.059 35.6862 64.5251 34.7909 64.9911 34.3777C65.3906 34.0334 65.9232 33.9645 66.2561 33.5513C66.3226 33.5513 66.3226 33.5513 66.3892 33.6202C66.1895 34.1023 65.79 34.3777 65.5903 34.9287C65.3906 34.9287 65.3906 35.2042 65.0577 35.1353C63.7927 36.6504 63.0604 38.441 61.9952 40.0939C61.9286 39.5429 62.3946 39.1986 62.5944 38.7165ZM71.9816 44.5016C74.112 42.5044 76.0427 40.3006 77.7737 37.959C77.9069 37.8902 77.9069 38.0279 77.9734 38.1656C76.7085 39.6808 75.843 41.5402 74.2452 42.711C73.5794 43.3997 73.2465 44.3638 71.9816 44.5016ZM74.7113 43.1241C74.5782 43.193 74.3119 42.9175 74.3784 42.8486C76.0428 41.2647 77.5075 39.4741 78.8391 37.5457C78.9722 37.4769 78.9722 37.6146 78.9722 37.6835C78.0401 38.9231 75.3771 42.9175 74.7113 43.1241Z" fill="white"/>
<path fill-rule="evenodd" clip-rule="evenodd" d="M56.4029 37.4081C56.4694 36.1684 56.2697 35.342 56.0034 34.309C55.3376 31.5542 53.7398 29.9702 51.4762 28.7995C50.8104 28.3174 50.2778 28.1108 50.0781 28.0419C49.6786 27.8353 49.0129 27.6287 48.4803 27.5598C47.9477 27.491 47.4816 27.8353 46.8824 27.7664C46.2167 27.6976 45.6841 27.0777 44.752 27.4221C42.2221 28.3174 40.2248 29.8325 38.4938 31.5542C38.4273 31.6231 38.4938 31.8297 38.3607 31.8986C37.8946 32.4495 37.0957 32.7939 36.6297 33.4137C36.4965 33.6203 36.4965 33.8269 36.3634 34.0335C36.2302 34.2401 35.9639 34.3779 35.8308 34.6533C35.4979 35.2043 35.2316 35.8241 34.8321 36.3751C34.0998 37.2704 33.5672 38.3034 33.0346 39.3364C32.7017 39.9562 32.4354 40.6449 32.2357 41.3336C31.9028 41.678 31.4367 42.2289 31.237 42.7799C31.0373 43.3308 31.1039 44.6393 31.1039 45.0525C31.1039 45.328 30.9707 45.6035 30.9707 45.8101C30.9707 45.9478 31.0373 46.1545 31.1039 46.3611C31.1039 46.7743 30.9707 47.1186 31.0373 47.3941C31.237 48.3583 31.703 49.1158 31.9693 49.8734C32.1691 49.8734 31.9693 49.3913 32.1691 49.3913C32.4354 50.1489 32.8348 50.7687 33.434 51.1819C33.8335 51.4574 34.3661 51.5951 34.7656 51.8706C34.9653 52.0083 35.0319 52.2149 35.165 52.3527C35.3647 52.4904 35.631 52.4904 35.8974 52.697C36.1637 52.9036 36.2968 53.1791 36.5631 53.3168C36.8294 53.4546 38.0278 53.7989 39.2262 53.6612C40.2914 53.5923 41.29 52.9725 42.2887 53.0413C42.1555 53.0413 41.8226 53.5923 41.9558 53.5923C43.8199 52.9036 45.6841 52.2149 47.2819 51.2508C46.949 51.5951 46.2833 51.7328 46.0835 52.2149C48.3471 51.2508 50.3444 49.0469 52.0754 46.7743C52.8743 45.7412 53.6732 44.5705 54.4056 43.4686C55.3376 41.8846 56.2031 39.8185 56.4029 37.4081ZM35.1649 38.0968C35.2315 38.3723 34.2329 39.9563 34.1663 40.2318C34.0331 39.8874 34.7655 38.1657 35.1649 38.0968ZM39.2927 52.1461C39.6921 51.5952 40.5576 52.0773 41.1568 52.0084C40.7573 52.4905 39.8918 52.4216 39.2927 52.1461ZM40.6242 51.5263C41.9557 51.0442 43.0875 50.4244 44.4191 49.9423C44.1527 50.4932 43.487 50.6998 42.6881 51.113C41.9557 51.4574 41.4897 51.9395 40.6242 51.5263ZM42.8878 51.5952C44.1528 50.8376 45.218 49.9423 46.6161 49.3225C46.6161 49.2536 46.6827 49.2536 46.7492 49.2536C45.8172 50.4244 44.2193 50.9065 42.8878 51.5952ZM47.8144 44.5705C46.6161 46.7743 44.5522 48.0829 42.0223 48.9093C39.6921 49.5291 37.0956 48.5649 35.6975 47.3942L35.631 47.3253C35.0318 46.4989 34.0997 46.2923 34.2329 44.7083C34.2994 43.813 34.7655 42.9177 35.0984 42.0224C35.2981 41.6092 35.3647 41.196 35.5644 40.8516C35.8973 40.1629 36.2967 39.3365 36.8293 38.7855C37.7614 36.444 38.9598 34.3091 40.6242 32.6562C40.7573 32.5873 40.7573 32.5185 40.9571 32.3807C41.29 32.1052 41.4897 31.8986 41.8891 31.6232C42.8878 30.8656 44.1527 30.4524 45.4177 30.108C46.2166 30.0392 47.2152 30.3147 48.0807 30.3835C48.9462 30.3835 49.6786 30.9345 50.0114 31.21C50.6106 32.1052 51.4761 32.7939 51.6093 34.1713C51.6093 34.4468 51.809 34.7223 51.8756 34.9977C51.9422 35.4798 51.809 36.0996 51.7424 36.5129C51.7424 36.6506 51.6759 36.9949 51.6093 37.2016C51.343 37.8902 50.8769 39.061 50.6106 39.5431C50.4109 39.8186 50.1446 40.3695 50.0114 40.7139C49.8783 41.1271 49.7451 41.5403 49.612 41.8158C49.4788 42.0913 49.146 42.5045 49.0794 42.5733C48.7465 42.9177 48.4802 43.5375 48.347 43.7441C48.347 43.813 48.2139 44.0885 48.1473 44.1573C48.0142 44.2262 47.9476 44.4328 47.8144 44.5705ZM50.7438 44.0196C49.8783 45.397 49.0128 46.7744 48.1474 48.0829C48.4802 46.7055 49.2792 44.846 50.7438 44.0196ZM53.2071 41.1959C52.4082 42.9176 50.7438 45.6035 49.4123 47.1875C50.6106 45.1903 52.0088 42.5044 52.0753 41.8846C52.2085 41.6091 52.5414 40.9893 52.6079 40.7827C52.7411 40.1629 53.1406 39.8185 53.3403 39.2676C53.3403 39.8874 53.4069 40.6449 53.2071 41.1959Z" fill="white"/>
<path fill-rule="evenodd" clip-rule="evenodd" d="M35.4317 27.9731C35.4317 27.6976 35.4982 27.5598 35.5648 27.3532C35.4982 27.2155 35.2319 27.1466 35.2985 26.8712C34.899 26.94 34.5662 27.3532 34.2999 27.491C34.2333 27.5598 34.1667 27.5598 34.1667 27.6287C34.1001 27.6976 33.967 27.6976 33.9004 27.7665C33.4344 28.3174 33.1681 29.0061 32.7686 29.6948C32.1028 30.7278 31.5702 31.692 31.0376 32.7939C30.7713 33.276 30.6382 33.8958 30.1721 34.2401C30.1056 33.7581 30.3719 33.5515 30.505 33.2071C30.971 32.1741 31.4371 31.0033 32.0363 29.9703C32.7686 28.6618 33.7007 27.3532 34.2999 26.2513C34.3664 26.0447 34.1667 25.907 34.1667 25.6315C34.5662 25.0117 33.9004 24.4607 33.7007 24.0475C33.5009 24.1164 33.3678 24.4607 33.1681 24.3919C33.3678 24.323 33.5009 24.0475 33.3678 23.7721C33.3012 23.9787 33.1681 23.7721 33.2346 23.7721C32.9683 23.7032 32.8352 24.1853 32.5689 24.3919C32.4357 24.4607 32.3691 24.323 32.236 24.323C31.5037 24.874 31.1708 25.6315 30.6382 26.4579C30.3053 27.0089 29.9724 27.491 29.6395 27.9731C29.3066 28.4551 29.1069 29.1438 28.8406 29.6948C28.5077 30.2457 28.1748 30.7967 27.9751 31.3476C27.5757 32.5184 27.5091 33.7581 26.9099 34.86C26.9099 34.9288 26.7102 35.6175 26.4439 35.893C26.6436 35.0666 27.043 33.8958 27.3759 32.725C27.043 32.9316 27.043 33.276 26.9099 33.5515C26.4439 34.7911 25.8447 36.0307 25.3786 37.2704C24.9792 38.3034 24.4466 39.5431 23.914 40.4384C23.3813 41.9535 22.3827 42.9176 21.9832 44.5016C22.1164 44.5705 22.3161 44.0195 22.5824 43.8129C22.649 43.9507 22.5159 44.295 22.4493 44.4328C22.2495 44.7771 21.8501 45.5347 21.5838 46.1545C21.4506 46.43 21.2509 46.6366 21.1843 46.912C20.9846 47.3941 20.9846 47.8762 20.8514 48.2894C20.7183 48.7026 20.452 49.047 20.1857 49.3913C19.6531 50.1489 19.3868 50.9753 18.8542 51.664C18.5213 52.0772 18.3215 52.5593 18.255 52.697C18.1218 53.1102 17.7889 53.5923 17.7224 53.7301C17.6558 53.7989 16.99 55.1074 16.2577 55.3829C16.1911 55.4518 16.1245 55.5207 15.9914 55.5895C15.1259 56.9669 14.5933 58.2065 13.2617 58.9641C12.9954 59.1018 12.9289 59.2396 12.7957 59.3085C12.1965 60.1349 11.5308 60.6858 10.399 60.9613C10.9982 60.6858 11.7305 59.9971 11.9968 59.6528C11.8636 59.6528 11.4642 59.8594 11.1979 59.9971C10.5321 60.4104 10.7318 60.3415 10.2658 60.5481C9.40032 61.3745 8.40167 61.9943 7.2033 62.3387C7.13672 62.3387 7.07015 62.3387 7.00357 62.4076C6.60411 62.5453 6.53754 62.3387 6.20466 62.201C6.0715 62.1321 5.93835 61.9255 5.87177 61.7877C5.33916 60.7547 4.87313 59.9971 5.27259 58.5509C5.60547 57.2424 6.87042 55.6584 7.80249 55.1074C8.00222 54.5565 8.53483 53.8678 8.13537 53.1102C8.13537 53.0414 8.06879 52.9036 8.06879 52.8348C8.00222 51.8017 7.86906 51.3196 7.46961 50.631C7.60276 50.4244 7.80249 50.3555 7.80249 50.0111C7.66933 49.8734 7.60276 49.5979 7.53618 49.3913C7.53618 49.2536 7.46961 49.1158 7.2033 49.047C7.07015 48.9781 7.13672 48.7026 7.07015 48.7026C6.53754 48.6338 6.73727 49.1847 6.40439 49.3225C6.27123 49.2536 6.33781 49.1847 6.27123 49.1847C5.93835 49.3913 5.40574 49.3913 5.27259 49.5291C4.47367 50.7687 3.87449 52.2149 2.74269 53.1791C2.74269 53.4546 2.67611 53.4546 2.54296 53.6612C2.40981 53.7301 2.40981 53.8678 2.27665 53.8678C1.74404 54.6942 1.21143 55.7273 0.878551 56.6914C0.745399 57.1046 0.811975 57.449 0.678822 57.9311C0.612246 58.1377 0.412517 58.3443 0.345941 58.5509C0.146212 59.3085 -0.0535172 60.4104 0.0130591 61.2368C0.0796354 62.201 0.212788 63.3029 0.612246 64.1982C0.678822 64.3359 0.745399 64.4048 0.745399 64.4736C1.0117 64.818 1.81062 65.7821 2.40981 65.9887C2.47638 66.0576 2.47638 66.1954 2.54296 66.2642C3.67476 67.1595 5.27259 67.7105 6.937 67.8482C7.00357 67.8482 7.00357 68.0548 7.13672 67.9859C10.2658 67.5039 12.3297 66.0576 14.3935 64.3359C16.7237 62.4764 18.6544 60.4792 20.3188 58.0688C20.9846 57.1046 21.6504 56.2093 22.183 55.1763C22.7156 54.6254 23.0485 53.9367 23.3148 53.1791C25.6449 49.9423 26.7767 45.6724 28.4411 41.8157C28.4411 41.7469 28.5743 41.5403 28.5743 41.5403C29.1069 39.4742 30.1721 37.8213 31.0376 36.0996C32.5689 33.4137 33.8338 30.4523 35.4317 27.9731ZM15.1259 61.5122C15.1259 61.65 12.13 64.0604 11.9302 64.1293C11.0647 64.7491 10.399 64.9557 10.1993 64.9557C9.99953 64.9557 8.00224 64.6802 8.26854 64.4736C8.33512 64.4736 9.93295 64.6113 10.7984 64.1981C12.4629 63.5094 14.2604 61.9943 14.9927 61.3056C15.1259 61.3745 15.1259 61.4434 15.1259 61.5122ZM15.7251 61.099C15.5254 60.6858 16.4574 59.9971 16.6572 59.9971C16.4574 60.2726 16.058 60.617 15.7251 61.099Z" fill="white"/>
<path fill-rule="evenodd" clip-rule="evenodd" d="M36.9632 21.4993C36.8966 21.637 37.629 21.7748 37.7621 21.9125C37.8953 22.0502 37.8287 22.2569 37.9619 22.3946C38.8273 23.0833 39.9591 21.9125 40.6249 21.637C41.2241 21.0861 41.8233 20.3974 42.3559 19.7087C42.4225 19.6398 42.5556 19.2955 42.5556 19.2266C42.6222 18.5379 41.9564 17.8492 41.9564 17.2294C41.9564 17.0228 42.1562 16.8162 42.2227 16.6096C42.5556 15.5077 42.6222 14.5435 42.023 13.786C40.4252 13.3039 38.6942 15.3011 37.6955 16.1275C37.4958 16.2652 37.2295 16.403 37.0964 16.4719C36.7635 16.8162 36.7635 16.8851 36.364 17.1605C36.0977 17.436 35.2988 17.9181 35.3654 18.4002C35.5651 19.571 35.6983 19.7776 36.1643 20.6729C36.4306 21.0861 36.6969 21.2238 36.9632 21.4993Z" fill="white"/>
</svg>
